<?xml version="1.0" encoding="utf-8"?>
<!-- Generator: Adobe Illustrator 27.7.0, SVG Export Plug-In . SVG Version: 6.00 Build 0)  -->
<svg version="1.1" id="Layer_1" xmlns="http://www.w3.org/2000/svg" xmlns:xlink="http://www.w3.org/1999/xlink" x="0px" y="0px"
	 viewBox="0 0 800 245" style="enable-background:new 0 0 800 245;" xml:space="preserve">
<style type="text/css">
	.st0{fill:#A6A6A6;}
	.st1{fill:#FFFFFF;stroke:#FFFFFF;stroke-width:1.1852;stroke-miterlimit:59.2593;}
	.st2{fill:#FFFFFF;}
	.st3{fill:url(#SVGID_1_);}
	.st4{fill:url(#SVGID_00000042003012234562867450000003008698215808138661_);}
	.st5{fill:url(#SVGID_00000031905842527393482940000007396697600943021469_);}
	.st6{fill:url(#SVGID_00000155845220248921400270000007244502270712594346_);}
	.st7{opacity:0.2;enable-background:new    ;}
	.st8{opacity:0.12;enable-background:new    ;}
	.st9{opacity:0.25;fill:#FFFFFF;enable-background:new    ;}
</style>
<path d="M770.4,241.5H29.6C13,241.5,0,228.5,0,211.9V34.1C0,17.5,13,4.5,29.6,4.5h740.7c16.6,0,29.6,13,29.6,29.6v177.8
	C800,228.5,787,241.5,770.4,241.5z"/>
<path class="st0" d="M770.4,9.2c13.6,0,24.9,11.3,24.9,24.9v177.8c0,13.6-11.3,24.9-24.9,24.9H29.6c-13.6,0-24.9-11.3-24.9-24.9
	V34.1C4.7,20.5,16,9.2,29.6,9.2H770.4 M770.4,4.5H29.6C13,4.5,0,18.1,0,34.1v177.8c0,16.6,13,29.6,29.6,29.6h740.7
	c16.6,0,29.6-13,29.6-29.6V34.1C800,18.1,787,4.5,770.4,4.5z"/>
<path class="st1" d="M280.9,64.9c0,4.7-1.2,8.9-4.1,11.9c-3.6,3.6-7.7,5.3-13,5.3s-9.5-1.8-13-5.3c-3.6-3.6-5.3-7.7-5.3-13
	s1.8-9.5,5.3-13c3.6-3.6,7.7-5.3,13-5.3c2.4,0,4.7,0.6,7.1,1.8c2.4,1.2,4.1,2.4,5.3,4.1l-3,3c-2.4-3-5.3-4.1-9.5-4.1
	c-3.6,0-7.1,1.2-9.5,4.1c-3,2.4-4.1,5.9-4.1,10.1s1.2,7.7,4.1,10.1s5.9,4.1,9.5,4.1c4.1,0,7.1-1.2,10.1-4.1c1.8-1.8,3-4.1,3-7.1h-13
	v-4.7h17.2L280.9,64.9L280.9,64.9z M308.1,50.1h-16v11.3H307v4.1h-14.8v11.3h16v4.7h-20.7V46h20.7V50.1z M327.7,81.5H323V50.1h-10.1
	V46h24.9v4.1h-10.1V81.5z M355,81.5V46h4.7v35.6H355z M379.9,81.5h-4.7V50.1H365V46h24.3v4.1h-10.1v31.4H379.9z M436.1,76.8
	c-3.6,3.6-7.7,5.3-13,5.3c-5.3,0-9.5-1.8-13-5.3c-3.6-3.6-5.3-7.7-5.3-13s1.8-9.5,5.3-13s7.7-5.3,13-5.3c5.3,0,9.5,1.8,13,5.3
	c3.6,3.6,5.3,7.7,5.3,13S439.7,73.2,436.1,76.8z M413.6,73.8c2.4,2.4,5.9,4.1,9.5,4.1s7.1-1.2,9.5-4.1c2.4-2.4,4.1-5.9,4.1-10.1
	s-1.2-7.7-4.1-10.1c-2.4-2.4-5.9-4.1-9.5-4.1s-7.1,1.2-9.5,4.1c-2.4,2.4-4.1,5.9-4.1,10.1S410.7,71.4,413.6,73.8z M448,81.5V46h5.3
	l17.2,27.9V46h4.7v35.6h-4.7l-18.4-29v29H448L448,81.5z"/>
<path class="st2" d="M403.6,133.7c-14.2,0-25.5,10.7-25.5,25.5c0,14.2,11.3,25.5,25.5,25.5S429,174,429,159.1
	C429,143.7,417.8,133.7,403.6,133.7z M403.6,174c-7.7,0-14.2-6.5-14.2-15.4c0-8.9,6.5-15.4,14.2-15.4c7.7,0,14.2,5.9,14.2,15.4
	C417.8,167.4,411.3,174,403.6,174z M348.4,133.7c-14.2,0-25.5,10.7-25.5,25.5c0,14.2,11.3,25.5,25.5,25.5s25.5-10.7,25.5-25.5
	C373.9,143.7,362.7,133.7,348.4,133.7z M348.4,174c-7.7,0-14.2-6.5-14.2-15.4c0-8.9,6.5-15.4,14.2-15.4c7.7,0,14.2,5.9,14.2,15.4
	C362.7,167.4,356.1,174,348.4,174z M282.7,141.4V152h25.5c-0.6,5.9-3,10.7-5.9,13.6c-3.6,3.6-9.5,7.7-19.6,7.7
	c-16,0-27.9-12.4-27.9-28.4s12.4-28.4,27.9-28.4c8.3,0,14.8,3.6,19.6,7.7l7.7-7.7c-6.5-5.9-14.8-10.7-26.7-10.7
	c-21.3,0-39.7,17.8-39.7,39.1s18.4,39.1,39.7,39.1c11.9,0,20.1-3.6,27.3-11.3c7.1-7.1,9.5-17.2,9.5-24.9c0-2.4,0-4.7-0.6-6.5
	L282.7,141.4L282.7,141.4z M551.7,149.7c-2.4-5.9-8.3-16-21.3-16c-13,0-23.7,10.1-23.7,25.5c0,14.2,10.7,25.5,24.9,25.5
	c11.3,0,18.4-7.1,20.7-11.3l-8.3-5.9c-3,4.1-6.5,7.1-12.4,7.1c-5.9,0-9.5-2.4-12.4-7.7l33.8-14.2L551.7,149.7L551.7,149.7z
	 M517.3,158c0-9.5,7.7-14.8,13-14.8c4.1,0,8.3,2.4,9.5,5.3L517.3,158L517.3,158z M489.5,182.3h11.3v-74.1h-11.3V182.3z M471.7,139
	c-3-3-7.7-5.9-13.6-5.9c-12.4,0-24.3,11.3-24.3,25.5c0,14.2,11.3,24.9,24.3,24.9c5.9,0,10.7-3,13-5.9h0.6v3.6
	c0,9.5-5.3,14.8-13.6,14.8c-6.5,0-11.3-4.7-12.4-8.9l-9.5,4.1c3,6.5,10.1,14.8,22.5,14.8c13,0,23.7-7.7,23.7-26.1v-45h-10.7
	L471.7,139L471.7,139z M458.7,174c-7.7,0-14.2-6.5-14.2-15.4s6.5-15.4,14.2-15.4c7.7,0,13.6,6.5,13.6,15.4S466.4,174,458.7,174z
	 M603.3,108.2h-26.7v74.1h11.3v-27.9h15.4c12.4,0,24.3-8.9,24.3-23.1C627.6,117.1,615.7,108.2,603.3,108.2z M603.9,143.7h-16v-25.5
	h16c8.3,0,13,7.1,13,12.4C616.3,137.2,611.6,143.7,603.9,143.7L603.9,143.7z M672,133.1c-8.3,0-16.6,3.6-19.6,11.3l10.1,4.1
	c2.4-4.1,5.9-5.3,10.1-5.3c5.9,0,11.3,3.6,11.9,9.5v0.6c-1.8-1.2-6.5-3-11.3-3c-10.7,0-21.3,5.9-21.3,16.6
	c0,10.1,8.9,16.6,18.4,16.6c7.7,0,11.3-3.6,14.2-7.1h0.6v5.9h10.7v-28.4C694.5,140.8,684.4,133.1,672,133.1L672,133.1z M670.8,174
	c-3.6,0-8.9-1.8-8.9-6.5c0-5.9,6.5-7.7,11.9-7.7c4.7,0,7.1,1.2,10.1,2.4C682.7,169.2,676.7,174,670.8,174z M733,134.9l-12.4,32H720
	l-13-32h-11.9l19.6,45l-11.3,24.9h11.3l30.2-69.9H733L733,134.9z M633.5,182.3h11.3v-74.1h-11.3V182.3z"/>
<g>
	
		<linearGradient id="SVGID_1_" gradientUnits="userSpaceOnUse" x1="99.9328" y1="493.046" x2="83.1498" y2="509.828" gradientTransform="matrix(5.9259 0 0 5.9259 -463.037 -2865.6851)">
		<stop  offset="0" style="stop-color:#00A0FF"/>
		<stop  offset="7.000001e-03" style="stop-color:#00A1FF"/>
		<stop  offset="0.26" style="stop-color:#00BEFF"/>
		<stop  offset="0.512" style="stop-color:#00D2FF"/>
		<stop  offset="0.76" style="stop-color:#00DFFF"/>
		<stop  offset="1" style="stop-color:#00E3FF"/>
	</linearGradient>
	<path class="st3" d="M61.6,48.9c-1.8,1.8-2.4,4.7-2.4,8.3v131c0,3.6,1.2,6.5,3,8.3l0.6,0.6l73.5-73.5v-1.2L61.6,48.9z"/>
	
		<linearGradient id="SVGID_00000137092808062196909700000010825538152322548641_" gradientUnits="userSpaceOnUse" x1="111.9715" y1="504.3906" x2="87.7745" y2="504.3906" gradientTransform="matrix(5.9259 0 0 5.9259 -463.037 -2865.6851)">
		<stop  offset="0" style="stop-color:#FFE000"/>
		<stop  offset="0.409" style="stop-color:#FFBD00"/>
		<stop  offset="0.775" style="stop-color:#FFA500"/>
		<stop  offset="1" style="stop-color:#FF9C00"/>
	</linearGradient>
	<path style="fill:url(#SVGID_00000137092808062196909700000010825538152322548641_);" d="M160,148.5l-24.3-24.3v-1.8L160,98.1
		l0.6,0.6l29,16.6c8.3,4.7,8.3,12.4,0,17.2L160,148.5z"/>
	
		<linearGradient id="SVGID_00000013902079272651485590000006063864378534155399_" gradientUnits="userSpaceOnUse" x1="102.953" y1="506.6251" x2="80.195" y2="529.3831" gradientTransform="matrix(5.9259 0 0 5.9259 -463.037 -2865.6851)">
		<stop  offset="0" style="stop-color:#FF3A44"/>
		<stop  offset="1" style="stop-color:#C31162"/>
	</linearGradient>
	<path style="fill:url(#SVGID_00000013902079272651485590000006063864378534155399_);" d="M160.6,147.9L135.7,123l-74.1,74.1
		c3,3,7.1,3,12.4,0.6L160.6,147.9"/>
	
		<linearGradient id="SVGID_00000088126842948596046950000003677631708286070951_" gradientUnits="userSpaceOnUse" x1="85.399" y1="484.5521" x2="95.562" y2="494.7151" gradientTransform="matrix(5.9259 0 0 5.9259 -463.037 -2865.6851)">
		<stop  offset="0" style="stop-color:#32A071"/>
		<stop  offset="6.900000e-02" style="stop-color:#2DA771"/>
		<stop  offset="0.476" style="stop-color:#15CF74"/>
		<stop  offset="0.801" style="stop-color:#06E775"/>
		<stop  offset="1" style="stop-color:#00F076"/>
	</linearGradient>
	<path style="fill:url(#SVGID_00000088126842948596046950000003677631708286070951_);" d="M160.6,98.1L74.1,48.9
		c-5.3-3-9.5-2.4-12.4,0.6l74.1,73.5L160.6,98.1L160.6,98.1z"/>
	<path class="st7" d="M160,147.3l-85.9,48.6c-4.7,3-8.9,2.4-11.9,0l-0.6,0.6l0.6,0.6c3,2.4,7.1,3,11.9,0L160,147.3z"/>
	<path class="st8" d="M61.6,195.9c-1.8-1.8-2.4-4.7-2.4-8.3v0.6c0,3.6,1.2,6.5,3,8.3v-0.6L61.6,195.9L61.6,195.9z M189.6,130.7
		L160,147.3l0.6,0.6l29-16.6c4.1-2.4,5.9-5.3,5.9-8.3C195.6,126,193.2,128.3,189.6,130.7z"/>
	<path class="st9" d="M74.1,49.5l115.6,65.8c3.6,2.4,5.9,4.7,5.9,7.7c0-3-1.8-5.9-5.9-8.3L74.1,48.9c-8.3-4.7-14.8-1.2-14.8,8.3v0.6
		C59.3,48.9,65.8,44.8,74.1,49.5z"/>
</g>
</svg>
