<?xml version="1.0" encoding="utf-8"?>
<!-- Generator: Adobe Illustrator 27.7.0, SVG Export Plug-In . SVG Version: 6.00 Build 0)  -->
<svg version="1.1" id="Layer_1" xmlns="http://www.w3.org/2000/svg" xmlns:xlink="http://www.w3.org/1999/xlink" x="0px" y="0px"
	 viewBox="0 0 800 245.8" style="enable-background:new 0 0 800 245.8;" xml:space="preserve">
<style type="text/css">
	.st0{fill:#FFFFFF;}
	.st1{fill:#A6A6A6;}
	.st2{fill:url(#SVGID_1_);}
</style>
<g transform="scale(4.00216 4.0011)">
	<path class="st0" d="M198.6,53.6c0,3.1-2.5,5.7-5.7,5.7c0,0,0,0,0,0H7c-3.1,0-5.7-2.5-5.7-5.7V8.4c0-3.1,2.5-5.7,5.7-5.7h185.9
		c3.1,0,5.7,2.5,5.7,5.7c0,0,0,0,0,0L198.6,53.6L198.6,53.6z"/>
	<path class="st1" d="M192.9,60.6H7c-3.9,0-7-3.1-7-7V8.4c0-3.9,3.1-7,7-7h185.9c3.9,0,7,3.1,7,7v45.3
		C199.9,57.5,196.8,60.6,192.9,60.6L192.9,60.6z"/>
	<path d="M198.6,53.6c0,3.1-2.5,5.7-5.7,5.7c0,0,0,0,0,0H7c-3.1,0-5.7-2.5-5.7-5.7V8.4c0-3.1,2.5-5.7,5.7-5.7h185.9
		c3.1,0,5.7,2.5,5.7,5.7c0,0,0,0,0,0L198.6,53.6L198.6,53.6z"/>
	<path class="st0" d="M44.6,30.7c0-4.8,3.9-7.1,4.1-7.2c-2.2-3.3-5.7-3.7-6.9-3.7c-2.9-0.3-5.7,1.7-7.2,1.7c-1.5,0-3.8-1.7-6.3-1.7
		c-3.2,0-6.1,1.9-7.8,4.7c-3.4,5.8-0.9,14.4,2.4,19.1c1.6,2.3,3.5,4.9,6,4.8c2.4-0.1,3.3-1.5,6.2-1.5c2.9,0,3.7,1.5,6.2,1.5
		c2.6,0,4.2-2.3,5.8-4.6c1.9-2.6,2.6-5.2,2.6-5.4C49.7,38.3,44.7,36.4,44.6,30.7L44.6,30.7z M39.9,16.6c1.3-1.6,2.2-3.8,1.9-6.1
		c-1.9,0.1-4.2,1.3-5.6,2.9c-1.2,1.4-2.3,3.7-2,5.8C36.4,19.4,38.6,18.2,39.9,16.6z"/>
	
		<linearGradient id="SVGID_1_" gradientUnits="userSpaceOnUse" x1="16.6922" y1="103.6544" x2="16.6922" y2="139.6994" gradientTransform="matrix(23.7359 0 0 -23.7231 -249.5585 2519.7786)">
		<stop  offset="0" style="stop-color:#1A1A1A;stop-opacity:0.1"/>
		<stop  offset="0.123" style="stop-color:#212121;stop-opacity:0.151"/>
		<stop  offset="0.308" style="stop-color:#353535;stop-opacity:0.227"/>
		<stop  offset="0.532" style="stop-color:#575757;stop-opacity:0.318"/>
		<stop  offset="0.783" style="stop-color:#858585;stop-opacity:0.421"/>
		<stop  offset="1" style="stop-color:#B3B3B3;stop-opacity:0.51"/>
	</linearGradient>
	<path class="st2" d="M192.9,1.4H93.3l39,59.3h60.6c3.9,0,7-3.1,7-7V8.4C199.9,4.5,196.8,1.4,192.9,1.4z"/>
	<g>
		<path class="st0" d="M79.5,48h-3.4l-1.8-5.8h-6.4L66.2,48h-3.3l6.3-19.7h3.9L79.5,48L79.5,48z M73.8,39.8l-1.7-5.1
			c-0.2-0.5-0.5-1.8-1-3.7H71c-0.2,0.8-0.5,2.1-0.9,3.7l-1.6,5.1H73.8z M95.8,40.8c0,2.4-0.7,4.3-2,5.7c-1.2,1.2-2.6,1.9-4.4,1.9
			c-1.9,0-3.2-0.7-4.1-2v7.5h-3.2V38.5c0-1.5,0-3.1-0.1-4.7h2.8l0.2,2.3h0.1c1.1-1.7,2.7-2.5,4.8-2.5c1.7,0,3.1,0.7,4.2,2
			C95.3,36.9,95.8,38.6,95.8,40.8L95.8,40.8z M92.6,40.9c0-1.4-0.3-2.5-0.9-3.4c-0.7-0.9-1.6-1.4-2.8-1.4c-0.8,0-1.5,0.3-2.1,0.8
			c-0.6,0.5-1,1.2-1.2,2c-0.1,0.3-0.1,0.6-0.1,1v2.4c0,1,0.3,1.9,1,2.6c0.6,0.7,1.5,1.1,2.5,1.1c1.2,0,2.1-0.5,2.8-1.4
			C92.3,43.6,92.6,42.4,92.6,40.9z M112.2,40.8c0,2.4-0.7,4.3-2,5.7c-1.2,1.2-2.6,1.9-4.4,1.9c-1.9,0-3.2-0.7-4.1-2v7.5h-3.2V38.5
			c0-1.5,0-3.1-0.1-4.7h2.8l0.2,2.3h0.1c1.1-1.7,2.7-2.5,4.8-2.5c1.7,0,3.1,0.7,4.2,2C111.6,36.9,112.2,38.6,112.2,40.8L112.2,40.8z
			 M109,40.9c0-1.4-0.3-2.5-0.9-3.4c-0.7-0.9-1.6-1.4-2.7-1.4c-0.8,0-1.5,0.3-2.1,0.8c-0.6,0.5-1,1.2-1.2,2c-0.1,0.4-0.1,0.7-0.1,1
			v2.4c0,1,0.3,1.9,0.9,2.6c0.6,0.7,1.5,1.1,2.5,1.1c1.2,0,2.1-0.5,2.8-1.4C108.6,43.6,109,42.4,109,40.9z M130.5,42.5
			c0,1.7-0.6,3-1.8,4.1c-1.3,1.1-3.1,1.7-5.4,1.7c-2.1,0-3.8-0.4-5.1-1.2l0.7-2.6c1.4,0.8,2.9,1.2,4.6,1.2c1.2,0,2.1-0.3,2.8-0.8
			c0.7-0.5,1-1.3,1-2.1c0-0.8-0.3-1.5-0.8-2c-0.5-0.5-1.5-1.1-2.7-1.5c-3.5-1.3-5.2-3.2-5.2-5.6c0-1.6,0.6-2.9,1.8-4
			c1.2-1,2.8-1.6,4.8-1.6c1.8,0,3.3,0.3,4.5,0.9l-0.8,2.6c-1.1-0.6-2.4-0.9-3.8-0.9c-1.1,0-2,0.3-2.6,0.8c-0.5,0.5-0.8,1.1-0.8,1.8
			c0,0.8,0.3,1.4,0.9,1.9c0.5,0.5,1.5,1,2.9,1.5c1.7,0.7,2.9,1.5,3.7,2.4C130.1,40,130.5,41.2,130.5,42.5L130.5,42.5z M140.9,36.2
			h-3.5v6.9c0,1.8,0.6,2.6,1.8,2.6c0.6,0,1,0,1.4-0.1l0.1,2.4c-0.6,0.2-1.4,0.3-2.5,0.3c-1.2,0-2.2-0.4-2.9-1.1
			c-0.7-0.8-1.1-2-1.1-3.8v-7.2h-2.1v-2.4h2.1v-2.6l3.1-0.9v3.5h3.5L140.9,36.2L140.9,36.2z M156.6,40.8c0,2.2-0.6,4-1.9,5.4
			c-1.3,1.4-3,2.2-5.2,2.2c-2.1,0-3.8-0.7-5-2.1c-1.2-1.4-1.9-3.1-1.9-5.2c0-2.2,0.6-4,1.9-5.4c1.3-1.4,3-2.1,5.2-2.1
			c2.1,0,3.8,0.7,5,2.1C156,37,156.6,38.7,156.6,40.8L156.6,40.8z M153.3,40.9c0-1.3-0.3-2.4-0.8-3.4c-0.7-1.1-1.6-1.7-2.8-1.7
			c-1.3,0-2.2,0.6-2.9,1.7c-0.6,0.9-0.8,2.1-0.8,3.4c0,1.3,0.3,2.4,0.8,3.4c0.7,1.1,1.6,1.7,2.9,1.7c1.2,0,2.2-0.6,2.8-1.7
			C153.1,43.3,153.3,42.2,153.3,40.9L153.3,40.9z M166.9,36.6c-0.3-0.1-0.7-0.1-1-0.1c-1.1,0-2,0.4-2.6,1.3
			c-0.5,0.7-0.8,1.7-0.8,2.8V48h-3.2v-9.7c0-1.5,0-3-0.1-4.5h2.8l0.1,2.7h0.1c0.3-0.9,0.9-1.7,1.6-2.3c0.7-0.5,1.5-0.8,2.3-0.8
			c0.3,0,0.6,0,0.8,0.1L166.9,36.6L166.9,36.6z M181,40.3c0,0.5,0,1-0.1,1.4h-9.5c0,1.4,0.5,2.5,1.4,3.2c0.8,0.7,1.8,1,3.1,1
			c1.4,0,2.7-0.2,3.8-0.7l0.5,2.2c-1.3,0.6-2.9,0.9-4.8,0.9c-2.2,0-3.9-0.6-5.2-1.9c-1.3-1.3-1.9-3-1.9-5.2c0-2.1,0.6-3.9,1.8-5.4
			c1.2-1.5,2.9-2.3,5-2.3c2,0,3.6,0.8,4.7,2.3C180.6,37,181,38.5,181,40.3L181,40.3z M178,39.4c0-0.9-0.2-1.7-0.6-2.4
			c-0.5-0.9-1.4-1.3-2.5-1.3c-1,0-1.9,0.4-2.5,1.3c-0.5,0.7-0.8,1.5-0.9,2.5L178,39.4L178,39.4z"/>
	</g>
	<g>
		<path class="st0" d="M67,21.4c-0.9,0-1.6,0-2.3-0.1v-9.5c0.9-0.1,1.8-0.2,2.7-0.2c3.6,0,5.3,1.8,5.3,4.7
			C72.7,19.5,70.7,21.4,67,21.4z M67.5,12.7c-0.5,0-0.9,0-1.3,0.1v7.2c0.2,0,0.5,0,1,0c2.4,0,3.7-1.4,3.7-3.9
			C71.1,14,69.8,12.7,67.5,12.7z M77.9,21.4c-2,0-3.4-1.5-3.4-3.6c0-2.2,1.4-3.7,3.5-3.7c2,0,3.4,1.5,3.4,3.6
			C81.4,19.9,80,21.4,77.9,21.4z M78,15.3c-1.1,0-1.8,1-1.8,2.5c0,1.4,0.7,2.5,1.8,2.5c1.1,0,1.8-1.1,1.8-2.5
			C79.8,16.3,79,15.3,78,15.3L78,15.3z M93,14.3l-2.2,7h-1.4l-0.9-3c-0.2-0.7-0.4-1.5-0.6-2.3h0c-0.1,0.8-0.3,1.5-0.6,2.3l-1,3h-1.4
			l-2.1-7h1.6l0.8,3.3c0.2,0.8,0.3,1.5,0.5,2.2h0c0.1-0.6,0.3-1.3,0.6-2.2l1-3.3h1.3l0.9,3.3c0.2,0.8,0.4,1.6,0.6,2.3h0
			c0.1-0.7,0.3-1.5,0.5-2.3l0.8-3.3L93,14.3L93,14.3z M101.1,21.3h-1.6v-4c0-1.2-0.5-1.9-1.4-1.9c-0.9,0-1.6,0.8-1.6,1.7v4.2H95v-5
			c0-0.6,0-1.3-0.1-2h1.4l0.1,1.1h0c0.4-0.7,1.3-1.2,2.2-1.2c1.5,0,2.4,1.1,2.4,2.9L101.1,21.3L101.1,21.3z M105.3,21.3h-1.6V11.1
			h1.6V21.3z M111,21.4c-2,0-3.4-1.5-3.4-3.6c0-2.2,1.4-3.7,3.5-3.7c2,0,3.4,1.5,3.4,3.6C114.5,19.9,113.1,21.4,111,21.4z
			 M111.1,15.3c-1.1,0-1.8,1-1.8,2.5c0,1.4,0.7,2.5,1.8,2.5c1.1,0,1.8-1.1,1.8-2.5C112.9,16.3,112.2,15.3,111.1,15.3L111.1,15.3z
			 M120.6,21.3l-0.1-0.8h0c-0.5,0.6-1.2,1-2,1c-1.3,0-2.1-0.9-2.1-2.1c0-1.7,1.5-2.6,4.1-2.6v-0.1c0-0.9-0.5-1.4-1.5-1.4
			c-0.7,0-1.3,0.2-1.8,0.5l-0.3-1c0.6-0.4,1.5-0.6,2.4-0.6c1.8,0,2.7,1,2.7,2.9v2.6c0,0.7,0,1.3,0.1,1.7L120.6,21.3L120.6,21.3z
			 M120.4,17.8c-1.7,0-2.6,0.4-2.6,1.4c0,0.7,0.4,1.1,1.1,1.1c0.8,0,1.5-0.6,1.5-1.4V17.8z M129.5,21.3l-0.1-1.1h0
			c-0.4,0.8-1.2,1.3-2.2,1.3c-1.7,0-2.9-1.5-2.9-3.6c0-2.2,1.3-3.7,3.1-3.7c0.9,0,1.6,0.3,2,0.9h0v-4h1.6v8.3c0,0.7,0,1.3,0.1,1.9
			H129.5L129.5,21.3z M129.2,17.2c0-1-0.6-1.8-1.6-1.8c-1.2,0-1.9,1-1.9,2.5c0,1.4,0.7,2.4,1.8,2.4c1,0,1.7-0.8,1.7-1.9L129.2,17.2
			L129.2,17.2z M140.6,21.4c-2,0-3.4-1.5-3.4-3.6c0-2.2,1.4-3.7,3.5-3.7c2,0,3.4,1.5,3.4,3.6C144.1,19.9,142.7,21.4,140.6,21.4
			L140.6,21.4z M140.7,15.3c-1.1,0-1.8,1-1.8,2.5c0,1.4,0.7,2.5,1.8,2.5c1.1,0,1.8-1.1,1.8-2.5C142.5,16.3,141.8,15.3,140.7,15.3
			L140.7,15.3z M152.5,21.3h-1.6v-4c0-1.2-0.5-1.9-1.4-1.9c-0.9,0-1.6,0.8-1.6,1.7v4.2h-1.6v-5c0-0.6,0-1.3-0.1-2h1.4l0.1,1.1h0
			c0.4-0.7,1.3-1.2,2.2-1.2c1.5,0,2.4,1.1,2.4,2.9V21.3z M162.9,15.4h-1.7v3.4c0,0.9,0.3,1.3,0.9,1.3c0.3,0,0.5,0,0.7-0.1l0,1.2
			c-0.3,0.1-0.7,0.2-1.2,0.2c-1.2,0-2-0.7-2-2.4v-3.5h-1v-1.2h1V13l1.5-0.5v1.7h1.7L162.9,15.4L162.9,15.4z M171.1,21.3h-1.6v-4
			c0-1.3-0.5-1.9-1.4-1.9c-0.8,0-1.6,0.5-1.6,1.7v4.2h-1.6V11.1h1.6v4.2h0c0.5-0.8,1.2-1.1,2.1-1.1c1.5,0,2.4,1.1,2.4,3L171.1,21.3
			L171.1,21.3z M179.6,18.1h-4.7c0,1.3,0.9,2.1,2.2,2.1c0.7,0,1.3-0.1,1.9-0.3l0.2,1.1c-0.7,0.3-1.4,0.4-2.3,0.4
			c-2.2,0-3.5-1.4-3.5-3.5c0-2.1,1.3-3.8,3.3-3.8c1.8,0,2.9,1.3,2.9,3.3C179.6,17.7,179.6,17.9,179.6,18.1L179.6,18.1z M178.1,17
			c0-1.1-0.5-1.8-1.5-1.8c-0.9,0-1.6,0.8-1.7,1.8H178.1L178.1,17z"/>
	</g>
</g>
</svg>
